<?xml version="1.0" encoding="utf-8"?>
<!-- Generator: Adobe Illustrator 16.0.0, SVG Export Plug-In . SVG Version: 6.00 Build 0)  -->
<!DOCTYPE svg PUBLIC "-//W3C//DTD SVG 1.1//EN" "http://www.w3.org/Graphics/SVG/1.1/DTD/svg11.dtd">
<svg version="1.1" id="Layer_1" xmlns="http://www.w3.org/2000/svg" xmlns:xlink="http://www.w3.org/1999/xlink" x="0px" y="0px"
	 width="160px" height="77px" viewBox="0 0 160 77" enable-background="new 0 0 160 77" xml:space="preserve">
<g>
	<g>
		<rect fill="#00ACEE" width="160" height="77"/>
	</g>
</g>
<path fill="#FFFFFF" d="M54.921,48.082h0.687v0.688h0.688h0.688v0.688h0.687h0.688v0.688h0.687h0.688v0.686h0.687h0.688h0.688v0.688
	h0.687h0.688h0.687v0.688h0.688h1.374h0.688v0.688h8.245v-0.688h2.748V51.52h2.062V50.83h2.063v-0.686H83.1v-0.688h1.375V48.77
	h1.373v-0.688h0.688v-0.688h0.688v-0.687h0.688V46.02H88.6v-0.688h0.687v-0.688h0.687v-0.688h0.688V43.27h0.688v-0.688h0.688v-0.688
	h0.686v-0.688h0.688v-1.373H94.1V39.15h0.688v-1.375h0.688v-1.373h0.687v-1.375h0.688V34.34v-0.686h0.688v-2.063h0.688v-2.062h0.688
	v-2.749H99.6v-3.436h0.688v-6.871v-0.688h0.688v-0.687h0.688v-0.687h0.688v-0.687h0.686V13.04h0.688v-0.688h0.688v-0.687h0.688
	v-0.687v-0.687h-0.688v0.687h-0.688v0.687h-1.373h-1.375h-0.688v-0.687h0.688v-0.687h0.688V9.604h0.688V8.917V8.23h0.686V6.856
	h0.688V6.169h-0.688h-0.686v0.687h-1.375v0.687h-2.062V8.23h-1.375V7.543h-0.688V6.856h-0.688V6.169H95.46V5.482h-1.375V4.795
	h-2.062V4.107h-3.436v0.688h-2.063v0.687H85.84h-0.688v0.687h-1.375v0.687H83.09v0.687h-0.688v1.375h-0.687v0.687h-0.687v0.687
	v0.687h-0.688v2.062h-0.687v6.184h-4.123v-0.687h-2.061h-0.688V17.85h-2.062v-0.687H69.35v-0.687h-1.374v-0.688h-1.374v-0.687
	h-0.688v-0.687h-0.687H64.54v-0.687h-0.688V13.04h-0.687v-0.688h-0.688v-0.687H61.79v-0.687h-0.688v-0.687h-0.688V9.604H59.73V8.917
	h-0.688V8.23h-0.687V6.856h-0.688v0.687V8.23H56.98v2.749h-0.688v2.062h0.688v0.687v0.687v1.374v0.688v0.687h0.687v1.375l0,0h0.688
	v0.687v0.688h0.687v0.687h0.688v0.688v0.687h0.687v0.688H59.73h-0.688h-0.687v-0.688h-1.374v-0.687h-0.688v1.374h0.688v0.688v0.687
	v1.374V26.1h0.687v0.688v0.687v0.688h0.688v0.687h0.687v0.688v0.688h0.688v0.686h0.687V31.6h0.688h0.688v0.688h0.687v0.688h1.374
	v0.688v0.686h-3.436v1.375h0.688v1.373h0.688v0.688h0.687v0.688h0.688v0.688h0.687v0.688h0.688v0.687h0.688v0.688h1.374l0.687,0.688
	h1.375h0.687v1.375h-0.687v0.686h-0.688v0.688h-0.688h-0.687v0.688h-1.374v0.688h-1.375v0.688h-2.061v0.687H58.36h-2.062h-1.374
	v0.671H54.921z"/>
</svg>
