<?xml version="1.0" encoding="utf-8"?>
<!-- Generator: Adobe Illustrator 16.0.0, SVG Export Plug-In . SVG Version: 6.00 Build 0)  -->
<!DOCTYPE svg PUBLIC "-//W3C//DTD SVG 1.1//EN" "http://www.w3.org/Graphics/SVG/1.1/DTD/svg11.dtd">
<svg version="1.1" id="Layer_1" xmlns="http://www.w3.org/2000/svg" xmlns:xlink="http://www.w3.org/1999/xlink" x="0px" y="0px"
	 width="160px" height="77px" viewBox="0 0 160 77" enable-background="new 0 0 160 77" xml:space="preserve">
<g>
	<g>
		<rect x="0" fill-rule="evenodd" clip-rule="evenodd" fill="#6441A5" width="160" height="77"/>
	</g>
</g>
<path fill-rule="evenodd" clip-rule="evenodd" fill="#FFFFFF" d="M66.488,54.905v-4.717H57.84v-0.786h-0.786V15.6h0.786v-1.572
	h0.786v-2.358h0.786V8.524h0.786V7.738h40.878v27.515h-0.786v0.785h-0.786v0.786h-0.786v0.787h-0.786v0.785h-0.786v0.786H96.36
	v0.786h-0.786v0.786h-0.786v0.787h-0.786v0.785h-0.786v0.786H92.43V43.9h-0.786v0.785h-0.786v0.786h-0.786v0.786h-0.785v0.786
	h-0.787v0.786h-0.786v0.786h-0.785v0.786h-0.787v0.786h-8.647v0.786h-0.786v0.786h-0.786v0.786h-0.786v0.786h-0.786v0.786h-0.786
	v0.786h-1.572v0.786h-5.503V54.905z"/>
<path fill-rule="evenodd" clip-rule="evenodd" fill="#6441A5" d="M64.129,11.669v29.086h7.862v4.717h1.572v-0.786h0.786V43.9h0.786
	v-0.787h0.786v-0.786h0.786v-0.785h0.786v-0.787h12.578v-0.786h0.786v-0.786h0.786v-0.786h0.786v-0.785h0.786v-0.787h0.786v-0.786
	h0.786v-0.785h0.786v-0.787h0.786V33.68h0.786V11.669H64.129z"/>
<path fill-rule="evenodd" clip-rule="evenodd" fill="#FFFFFF" d="M75.135,20.316v11.006h3.931V20.316H75.135z"/>
<path fill-rule="evenodd" clip-rule="evenodd" fill="#FFFFFF" d="M86.141,20.316v11.006h3.146V20.316H86.141z"/>
</svg>
